# Blender 3.5.1
# www.blender.org
mtllib Office_Misc_PC_01.mtl
o Untitled
v -0.577778 -0.272222 0.550000
v -0.577778 -0.272222 0.150000
v -0.577778 -0.172222 0.550000
v -0.577778 -0.172222 0.150000
v -0.577778 0.027778 0.050000
v -0.577778 0.027778 -0.150000
v -0.577778 0.627778 0.050000
v -0.577778 0.627778 -0.150000
v -0.477778 -0.072222 0.050000
v -0.477778 -0.072222 -0.150000
v -0.477778 0.027778 0.050000
v -0.477778 0.027778 -0.150000
v -0.477778 0.627778 0.050000
v -0.477778 0.627778 -0.150000
v -0.477778 0.727778 0.050000
v -0.477778 0.727778 -0.150000
v -0.277778 -0.272222 -0.050000
v -0.277778 -0.272222 -0.250000
v -0.277778 -0.172222 -0.050000
v -0.277778 -0.172222 -0.250000
v -0.177778 -0.272222 0.050000
v -0.177778 -0.272222 -0.050000
v -0.177778 -0.272222 -0.250000
v -0.177778 -0.272222 -0.350000
v -0.177778 -0.172222 0.050000
v -0.177778 -0.172222 -0.050000
v -0.177778 -0.172222 -0.250000
v -0.177778 -0.172222 -0.350000
v -0.177778 -0.072222 -0.050000
v -0.177778 -0.072222 -0.150000
v -0.177778 0.327778 -0.150000
v -0.177778 0.327778 -0.250000
v 0.522222 -0.272222 0.550000
v 0.522222 -0.272222 0.250000
v 0.522222 -0.172222 0.550000
v 0.522222 -0.172222 0.250000
v 0.022222 -0.272222 0.050000
v 0.022222 -0.272222 -0.050000
v 0.022222 -0.272222 -0.250000
v 0.022222 -0.272222 -0.350000
v 0.022222 -0.172222 0.050000
v 0.022222 -0.172222 -0.050000
v 0.022222 -0.172222 -0.250000
v 0.022222 -0.172222 -0.350000
v 0.022222 -0.072222 -0.050000
v 0.022222 -0.072222 -0.150000
v 0.022222 0.327778 -0.150000
v 0.022222 0.327778 -0.250000
v 0.122222 -0.272222 -0.050000
v 0.122222 -0.272222 -0.250000
v 0.122222 -0.172222 -0.050000
v 0.122222 -0.172222 -0.250000
v 0.322222 -0.072222 0.050000
v 0.322222 -0.072222 -0.150000
v 0.322222 0.027778 0.050000
v 0.322222 0.027778 -0.150000
v 0.322222 0.627778 0.050000
v 0.322222 0.627778 -0.150000
v 0.322222 0.727778 0.050000
v 0.322222 0.727778 -0.150000
v 0.422222 -0.272222 0.550000
v 0.422222 -0.272222 0.150000
v 0.422222 -0.172222 0.550000
v 0.422222 -0.172222 0.150000
v 0.422222 0.027778 0.050000
v 0.422222 0.027778 -0.150000
v 0.422222 0.627778 0.050000
v 0.422222 0.627778 -0.150000
v 0.722222 -0.272222 0.550000
v 0.722222 -0.272222 0.250000
v 0.722222 -0.172222 0.550000
v 0.722222 -0.172222 0.250000
v -0.577778 -0.272222 0.550000
v -0.577778 -0.172222 0.550000
v 0.422222 -0.272222 0.550000
v 0.422222 -0.172222 0.550000
v 0.522222 -0.272222 0.550000
v 0.522222 -0.172222 0.550000
v 0.722222 -0.272222 0.550000
v 0.722222 -0.172222 0.550000
v -0.577778 0.027778 0.050000
v -0.577778 0.627778 0.050000
v -0.477778 -0.072222 0.050000
v -0.477778 0.027778 0.050000
v -0.477778 0.627778 0.050000
v -0.477778 0.727778 0.050000
v -0.177778 -0.272222 0.050000
v -0.177778 -0.172222 0.050000
v 0.022222 -0.272222 0.050000
v 0.022222 -0.172222 0.050000
v 0.322222 -0.072222 0.050000
v 0.322222 0.027778 0.050000
v 0.322222 0.627778 0.050000
v 0.322222 0.727778 0.050000
v 0.422222 0.027778 0.050000
v 0.422222 0.627778 0.050000
v -0.277778 -0.272222 -0.050000
v -0.277778 -0.172222 -0.050000
v -0.177778 -0.272222 -0.050000
v -0.177778 -0.172222 -0.050000
v -0.177778 -0.072222 -0.050000
v 0.022222 -0.272222 -0.050000
v 0.022222 -0.172222 -0.050000
v 0.022222 -0.072222 -0.050000
v 0.122222 -0.272222 -0.050000
v 0.122222 -0.172222 -0.050000
v 0.522222 -0.272222 0.250000
v 0.522222 -0.172222 0.250000
v 0.722222 -0.272222 0.250000
v 0.722222 -0.172222 0.250000
v -0.577778 -0.272222 0.150000
v -0.577778 -0.172222 0.150000
v 0.422222 -0.272222 0.150000
v 0.422222 -0.172222 0.150000
v -0.577778 0.027778 -0.150000
v -0.577778 0.627778 -0.150000
v -0.477778 -0.072222 -0.150000
v -0.477778 0.027778 -0.150000
v -0.477778 0.627778 -0.150000
v -0.477778 0.727778 -0.150000
v -0.177778 -0.072222 -0.150000
v -0.177778 0.327778 -0.150000
v 0.022222 -0.072222 -0.150000
v 0.022222 0.327778 -0.150000
v 0.322222 -0.072222 -0.150000
v 0.322222 0.027778 -0.150000
v 0.322222 0.627778 -0.150000
v 0.322222 0.727778 -0.150000
v 0.422222 0.027778 -0.150000
v 0.422222 0.627778 -0.150000
v -0.277778 -0.272222 -0.250000
v -0.277778 -0.172222 -0.250000
v -0.177778 -0.272222 -0.250000
v -0.177778 -0.172222 -0.250000
v -0.177778 0.327778 -0.250000
v 0.022222 -0.272222 -0.250000
v 0.022222 -0.172222 -0.250000
v 0.022222 0.327778 -0.250000
v 0.122222 -0.272222 -0.250000
v 0.122222 -0.172222 -0.250000
v -0.177778 -0.272222 -0.350000
v -0.177778 -0.172222 -0.350000
v 0.022222 -0.272222 -0.350000
v 0.022222 -0.172222 -0.350000
v -0.577778 -0.272222 0.550000
v 0.422222 -0.272222 0.550000
v 0.522222 -0.272222 0.550000
v 0.722222 -0.272222 0.550000
v 0.522222 -0.272222 0.250000
v 0.722222 -0.272222 0.250000
v -0.577778 -0.272222 0.150000
v 0.422222 -0.272222 0.150000
v -0.177778 -0.272222 0.050000
v 0.022222 -0.272222 0.050000
v -0.277778 -0.272222 -0.050000
v -0.177778 -0.272222 -0.050000
v 0.022222 -0.272222 -0.050000
v 0.122222 -0.272222 -0.050000
v -0.277778 -0.272222 -0.250000
v -0.177778 -0.272222 -0.250000
v 0.022222 -0.272222 -0.250000
v 0.122222 -0.272222 -0.250000
v -0.177778 -0.272222 -0.350000
v 0.022222 -0.272222 -0.350000
v -0.477778 -0.072222 0.050000
v 0.322222 -0.072222 0.050000
v -0.177778 -0.072222 -0.050000
v 0.022222 -0.072222 -0.050000
v -0.477778 -0.072222 -0.150000
v -0.177778 -0.072222 -0.150000
v 0.022222 -0.072222 -0.150000
v 0.322222 -0.072222 -0.150000
v -0.577778 0.027778 0.050000
v -0.477778 0.027778 0.050000
v 0.322222 0.027778 0.050000
v 0.422222 0.027778 0.050000
v -0.577778 0.027778 -0.150000
v -0.477778 0.027778 -0.150000
v 0.322222 0.027778 -0.150000
v 0.422222 0.027778 -0.150000
v -0.577778 -0.172222 0.550000
v 0.422222 -0.172222 0.550000
v 0.522222 -0.172222 0.550000
v 0.722222 -0.172222 0.550000
v 0.522222 -0.172222 0.250000
v 0.722222 -0.172222 0.250000
v -0.577778 -0.172222 0.150000
v 0.422222 -0.172222 0.150000
v -0.177778 -0.172222 0.050000
v 0.022222 -0.172222 0.050000
v -0.277778 -0.172222 -0.050000
v -0.177778 -0.172222 -0.050000
v 0.022222 -0.172222 -0.050000
v 0.122222 -0.172222 -0.050000
v -0.277778 -0.172222 -0.250000
v -0.177778 -0.172222 -0.250000
v 0.022222 -0.172222 -0.250000
v 0.122222 -0.172222 -0.250000
v -0.177778 -0.172222 -0.350000
v 0.022222 -0.172222 -0.350000
v -0.177778 0.327778 -0.150000
v 0.022222 0.327778 -0.150000
v -0.177778 0.327778 -0.250000
v 0.022222 0.327778 -0.250000
v -0.577778 0.627778 0.050000
v -0.477778 0.627778 0.050000
v 0.322222 0.627778 0.050000
v 0.422222 0.627778 0.050000
v -0.577778 0.627778 -0.150000
v -0.477778 0.627778 -0.150000
v 0.322222 0.627778 -0.150000
v 0.422222 0.627778 -0.150000
v -0.477778 0.727778 0.050000
v 0.322222 0.727778 0.050000
v -0.477778 0.727778 -0.150000
v 0.322222 0.727778 -0.150000
vn -1.0000 -0.0000 -0.0000
vn 1.0000 -0.0000 -0.0000
vn -0.0000 -0.0000 1.0000
vn -0.0000 -0.0000 -1.0000
vn -0.0000 -1.0000 -0.0000
vn -0.0000 1.0000 -0.0000
vt 0.763672 0.500000
vt 0.763672 0.500000
vt 0.763672 0.500000
vt 0.763672 0.500000
vt 0.763672 0.500000
vt 0.763672 0.500000
vt 0.763672 0.500000
vt 0.763672 0.500000
vt 0.763672 0.500000
vt 0.763672 0.500000
vt 0.763672 0.500000
vt 0.763672 0.500000
vt 0.763672 0.500000
vt 0.763672 0.500000
vt 0.763672 0.500000
vt 0.763672 0.500000
vt 0.763672 0.500000
vt 0.763672 0.500000
vt 0.763672 0.500000
vt 0.763672 0.500000
vt 0.763672 0.500000
vt 0.763672 0.500000
vt 0.763672 0.500000
vt 0.763672 0.500000
vt 0.763672 0.500000
vt 0.763672 0.500000
vt 0.763672 0.500000
vt 0.763672 0.500000
vt 0.763672 0.500000
vt 0.763672 0.500000
vt 0.763672 0.500000
vt 0.763672 0.500000
vt 0.763672 0.500000
vt 0.763672 0.500000
vt 0.763672 0.500000
vt 0.763672 0.500000
vt 0.763672 0.500000
vt 0.763672 0.500000
vt 0.763672 0.500000
vt 0.763672 0.500000
vt 0.763672 0.500000
vt 0.763672 0.500000
vt 0.763672 0.500000
vt 0.763672 0.500000
vt 0.763672 0.500000
vt 0.763672 0.500000
vt 0.763672 0.500000
vt 0.763672 0.500000
vt 0.763672 0.500000
vt 0.763672 0.500000
vt 0.763672 0.500000
vt 0.763672 0.500000
vt 0.763672 0.500000
vt 0.763672 0.500000
vt 0.763672 0.500000
vt 0.763672 0.500000
vt 0.763672 0.500000
vt 0.763672 0.500000
vt 0.763672 0.500000
vt 0.763672 0.500000
vt 0.763672 0.500000
vt 0.763672 0.500000
vt 0.763672 0.500000
vt 0.763672 0.500000
vt 0.763672 0.500000
vt 0.763672 0.500000
vt 0.763672 0.500000
vt 0.763672 0.500000
vt 0.763672 0.500000
vt 0.763672 0.500000
vt 0.763672 0.500000
vt 0.763672 0.500000
vt 0.763672 0.500000
vt 0.763672 0.500000
vt 0.763672 0.500000
vt 0.763672 0.500000
vt 0.763672 0.500000
vt 0.763672 0.500000
vt 0.763672 0.500000
vt 0.763672 0.500000
vt 0.763672 0.500000
vt 0.763672 0.500000
vt 0.763672 0.500000
vt 0.775391 0.500000
vt 0.763672 0.500000
vt 0.763672 0.500000
vt 0.775391 0.500000
vt 0.763672 0.500000
vt 0.763672 0.500000
vt 0.763672 0.500000
vt 0.763672 0.500000
vt 0.763672 0.500000
vt 0.763672 0.500000
vt 0.775391 0.500000
vt 0.763672 0.500000
vt 0.775391 0.500000
vt 0.763672 0.500000
vt 0.763672 0.500000
vt 0.763672 0.500000
vt 0.763672 0.500000
vt 0.763672 0.500000
vt 0.763672 0.500000
vt 0.763672 0.500000
vt 0.763672 0.500000
vt 0.763672 0.500000
vt 0.763672 0.500000
vt 0.763672 0.500000
vt 0.763672 0.500000
vt 0.763672 0.500000
vt 0.763672 0.500000
vt 0.763672 0.500000
vt 0.763672 0.500000
vt 0.763672 0.500000
vt 0.763672 0.500000
vt 0.763672 0.500000
vt 0.763672 0.500000
vt 0.763672 0.500000
vt 0.763672 0.500000
vt 0.763672 0.500000
vt 0.763672 0.500000
vt 0.763672 0.500000
vt 0.763672 0.500000
vt 0.763672 0.500000
vt 0.763672 0.500000
vt 0.763672 0.500000
vt 0.763672 0.500000
vt 0.763672 0.500000
vt 0.763672 0.500000
vt 0.763672 0.500000
vt 0.763672 0.500000
vt 0.763672 0.500000
vt 0.763672 0.500000
vt 0.763672 0.500000
vt 0.763672 0.500000
vt 0.763672 0.500000
vt 0.763672 0.500000
vt 0.763672 0.500000
vt 0.763672 0.500000
vt 0.763672 0.500000
vt 0.763672 0.500000
vt 0.763672 0.500000
vt 0.763672 0.500000
vt 0.763672 0.500000
vt 0.763672 0.500000
vt 0.763672 0.500000
vt 0.763672 0.500000
vt 0.763672 0.500000
vt 0.763672 0.500000
vt 0.763672 0.500000
vt 0.763672 0.500000
vt 0.763672 0.500000
vt 0.763672 0.500000
vt 0.763672 0.500000
vt 0.763672 0.500000
vt 0.763672 0.500000
vt 0.763672 0.500000
vt 0.763672 0.500000
vt 0.763672 0.500000
vt 0.763672 0.500000
vt 0.763672 0.500000
vt 0.763672 0.500000
vt 0.763672 0.500000
vt 0.763672 0.500000
vt 0.763672 0.500000
vt 0.763672 0.500000
vt 0.763672 0.500000
vt 0.763672 0.500000
vt 0.763672 0.500000
vt 0.763672 0.500000
vt 0.763672 0.500000
vt 0.763672 0.500000
vt 0.763672 0.500000
vt 0.763672 0.500000
vt 0.763672 0.500000
vt 0.763672 0.500000
vt 0.763672 0.500000
vt 0.763672 0.500000
vt 0.763672 0.500000
vt 0.763672 0.500000
vt 0.763672 0.500000
vt 0.763672 0.500000
vt 0.763672 0.500000
vt 0.763672 0.500000
vt 0.763672 0.500000
vt 0.763672 0.500000
vt 0.763672 0.500000
vt 0.763672 0.500000
vt 0.763672 0.500000
vt 0.763672 0.500000
vt 0.763672 0.500000
vt 0.763672 0.500000
vt 0.763672 0.500000
vt 0.763672 0.500000
vt 0.763672 0.500000
vt 0.763672 0.500000
vt 0.763672 0.500000
vt 0.763672 0.500000
vt 0.763672 0.500000
vt 0.763672 0.500000
vt 0.763672 0.500000
vt 0.763672 0.500000
vt 0.763672 0.500000
vt 0.763672 0.500000
vt 0.763672 0.500000
vt 0.763672 0.500000
vt 0.763672 0.500000
vt 0.763672 0.500000
vt 0.763672 0.500000
vt 0.763672 0.500000
vt 0.763672 0.500000
vt 0.763672 0.500000
vt 0.763672 0.500000
vt 0.763672 0.500000
vt 0.763672 0.500000
vt 0.763672 0.500000
vt 0.763672 0.500000
vt 0.763672 0.500000
vt 0.763672 0.500000
vt 0.763672 0.500000
vt 0.763672 0.500000
s 0
usemtl palette
f 3/3/1 2/2/1 1/1/1
f 4/4/1 2/2/1 3/3/1
f 7/7/1 6/6/1 5/5/1
f 8/8/1 6/6/1 7/7/1
f 11/11/1 10/10/1 9/9/1
f 12/12/1 10/10/1 11/11/1
f 15/15/1 14/14/1 13/13/1
f 16/16/1 14/14/1 15/15/1
f 19/19/1 18/18/1 17/17/1
f 20/20/1 18/18/1 19/19/1
f 25/25/1 22/22/1 21/21/1
f 26/26/1 22/22/1 25/25/1
f 27/27/1 24/24/1 23/23/1
f 28/28/1 24/24/1 27/27/1
f 29/29/1 27/27/1 26/26/1
f 30/30/1 27/27/1 29/29/1
f 31/31/1 27/27/1 30/30/1
f 32/32/1 27/27/1 31/31/1
f 35/35/1 34/34/1 33/33/1
f 36/36/1 34/34/1 35/35/1
f 37/37/2 38/38/2 41/41/2
f 41/41/2 38/38/2 42/42/2
f 39/39/2 40/40/2 43/43/2
f 43/43/2 40/40/2 44/44/2
f 42/42/2 43/43/2 45/45/2
f 45/45/2 43/43/2 46/46/2
f 46/46/2 43/43/2 47/47/2
f 47/47/2 43/43/2 48/48/2
f 49/49/2 50/50/2 51/51/2
f 51/51/2 50/50/2 52/52/2
f 53/53/2 54/54/2 55/55/2
f 55/55/2 54/54/2 56/56/2
f 57/57/2 58/58/2 59/59/2
f 59/59/2 58/58/2 60/60/2
f 61/61/2 62/62/2 63/63/2
f 63/63/2 62/62/2 64/64/2
f 65/65/2 66/66/2 67/67/2
f 67/67/2 66/66/2 68/68/2
f 69/69/2 70/70/2 71/71/2
f 71/71/2 70/70/2 72/72/2
f 75/75/3 74/74/3 73/73/3
f 76/76/3 74/74/3 75/75/3
f 79/79/3 78/78/3 77/77/3
f 80/80/3 78/78/3 79/79/3
f 84/85/3 82/82/3 81/81/3
f 85/86/3 82/82/3 84/85/3
f 89/91/3 88/90/3 87/89/3
f 90/92/3 88/90/3 89/91/3
f 91/93/3 84/85/3 83/83/3
f 92/94/3 85/87/3 84/84/3
f 92/95/3 84/85/3 91/93/3
f 93/97/3 86/88/3 85/86/3
f 93/96/3 85/87/3 92/94/3
f 94/98/3 86/88/3 93/97/3
f 95/99/3 93/97/3 92/95/3
f 96/100/3 93/97/3 95/99/3
f 99/103/3 98/102/3 97/101/3
f 100/104/3 98/102/3 99/103/3
f 103/107/3 101/105/3 100/104/3
f 104/108/3 101/105/3 103/107/3
f 105/109/3 103/107/3 102/106/3
f 106/110/3 103/107/3 105/109/3
f 107/111/4 108/112/4 109/113/4
f 109/113/4 108/112/4 110/114/4
f 111/115/4 112/116/4 113/117/4
f 113/117/4 112/116/4 114/118/4
f 115/119/4 116/120/4 118/122/4
f 118/122/4 116/120/4 119/123/4
f 117/121/4 118/122/4 121/125/4
f 119/123/4 120/124/4 121/125/4
f 118/122/4 119/123/4 121/125/4
f 121/125/4 120/124/4 122/126/4
f 122/126/4 120/124/4 124/128/4
f 123/127/4 124/128/4 125/129/4
f 125/129/4 124/128/4 126/130/4
f 124/128/4 120/124/4 127/131/4
f 126/130/4 124/128/4 127/131/4
f 127/131/4 120/124/4 128/132/4
f 126/130/4 127/131/4 129/133/4
f 129/133/4 127/131/4 130/134/4
f 131/135/4 132/136/4 133/137/4
f 133/137/4 132/136/4 134/138/4
f 134/138/4 135/139/4 137/141/4
f 137/141/4 135/139/4 138/142/4
f 136/140/4 137/141/4 139/143/4
f 139/143/4 137/141/4 140/144/4
f 141/145/4 142/146/4 143/147/4
f 143/147/4 142/146/4 144/148/4
f 149/153/5 148/152/5 147/151/5
f 150/154/5 148/152/5 149/153/5
f 151/155/5 146/150/5 145/149/5
f 152/156/5 146/150/5 151/155/5
f 156/160/5 154/158/5 153/157/5
f 157/161/5 154/158/5 156/160/5
f 159/163/5 156/160/5 155/159/5
f 159/163/5 158/162/5 157/161/5
f 159/163/5 157/161/5 156/160/5
f 160/164/5 158/162/5 159/163/5
f 161/165/5 158/162/5 160/164/5
f 162/166/5 158/162/5 161/165/5
f 163/167/5 161/165/5 160/164/5
f 164/168/5 161/165/5 163/167/5
f 167/171/5 166/170/5 165/169/5
f 168/172/5 166/170/5 167/171/5
f 169/173/5 167/171/5 165/169/5
f 170/174/5 167/171/5 169/173/5
f 171/175/5 166/170/5 168/172/5
f 172/176/5 166/170/5 171/175/5
f 177/181/5 174/178/5 173/177/5
f 178/182/5 174/178/5 177/181/5
f 179/183/5 176/180/5 175/179/5
f 180/184/5 176/180/5 179/183/5
f 183/187/6 184/188/6 185/189/6
f 185/189/6 184/188/6 186/190/6
f 181/185/6 182/186/6 187/191/6
f 187/191/6 182/186/6 188/192/6
f 189/193/6 190/194/6 192/196/6
f 192/196/6 190/194/6 193/197/6
f 191/195/6 192/196/6 195/199/6
f 195/199/6 192/196/6 196/200/6
f 193/197/6 194/198/6 197/201/6
f 197/201/6 194/198/6 198/202/6
f 196/200/6 197/201/6 199/203/6
f 199/203/6 197/201/6 200/204/6
f 201/205/6 202/206/6 203/207/6
f 203/207/6 202/206/6 204/208/6
f 205/209/6 206/210/6 209/213/6
f 209/213/6 206/210/6 210/214/6
f 207/211/6 208/212/6 211/215/6
f 211/215/6 208/212/6 212/216/6
f 213/217/6 214/218/6 215/219/6
f 215/219/6 214/218/6 216/220/6
