# MagicaVoxel @ Ephtracy

# group
o 

# material
mtllib Office_Misc_PC_01-69.mtl
usemtl palette

# normals
vn -1 0 0
vn 1 0 0
vn 0 0 1
vn 0 0 -1
vn 0 -1 0
vn 0 1 0

# texcoords
vt 0.916016 0.5
vt 0.919922 0.5

# verts
v -1.4 0.2 1.5
v -1.4 0.2 -1.3
v -1.4 0.3 1.5
v -1.4 0.3 -1.3
v -1.3 -0.8 1.5
v -1.3 -0.8 1.4
v -1.3 -0.8 -1.2
v -1.3 -0.8 -1.3
v -1.3 -0.7 1.4
v -1.3 -0.7 -1.2
v -1.3 0.2 1.6
v -1.3 0.2 1.5
v -1.3 0.2 1.4
v -1.3 0.2 -1.2
v -1.3 0.2 -1.3
v -1.3 0.2 -1.4
v -1.3 0.3 1.6
v -1.3 0.3 1.5
v -1.3 0.3 -1.3
v -1.3 0.3 -1.4
v -0.5 -0.8 1.5
v -0.5 -0.8 1.4
v -0.5 -0.7 1.5
v -0.5 -0.7 1.4
v 1.4 -0.8 -0.4
v 1.4 -0.8 -0.5
v 1.4 -0.8 -1.2
v 1.4 -0.8 -1.3
v 1.4 -0.7 -0.5
v 1.4 -0.7 -1.2
v 1.4 -0.7 -1.3
v 1.4 0.2 -0.4
v 1.4 0.2 -0.5
v 1.4 0.2 -1.2
v -1.2 -0.8 1.5
v -1.2 -0.8 1.4
v -1.2 -0.8 -1.2
v -1.2 -0.8 -1.3
v -1.2 -0.7 1.5
v -1.2 -0.7 1.4
v -1.2 -0.7 -1.2
v -1.2 -0.7 -1.3
v -1.2 0.2 1.4
v -1.2 0.2 -1.2
v -0.4 -0.8 1.5
v -0.4 -0.8 1.4
v -0.4 0.2 1.5
v -0.4 0.2 1.4
v -0.3 0.2 1.6
v -0.3 0.2 1.5
v -0.3 0.3 1.6
v -0.3 0.3 1.5
v -0.2 0.2 1.5
v -0.2 0.2 -0.2
v -0.2 0.3 1.5
v -0.2 0.3 -0.2
v 1.5 -0.8 -0.4
v 1.5 -0.8 -0.5
v 1.5 -0.8 -1.2
v 1.5 -0.8 -1.3
v 1.5 -0.7 -0.5
v 1.5 -0.7 -1.2
v 1.5 0.2 -0.2
v 1.5 0.2 -0.3
v 1.5 0.2 -0.4
v 1.5 0.2 -0.5
v 1.5 0.2 -1.2
v 1.5 0.2 -1.3
v 1.5 0.2 -1.4
v 1.5 0.3 -0.2
v 1.5 0.3 -0.3
v 1.5 0.3 -1.3
v 1.5 0.3 -1.4
v 1.6 0.2 -0.3
v 1.6 0.2 -1.3
v 1.6 0.3 -0.3
v 1.6 0.3 -1.3
v -1.3 0.2 1.6
v -1.3 0.3 1.6
v -0.3 0.2 1.6
v -0.3 0.3 1.6
v -1.4 0.2 1.5
v -1.4 0.3 1.5
v -1.3 -0.8 1.5
v -1.3 0.2 1.5
v -1.3 0.3 1.5
v -1.2 -0.8 1.5
v -1.2 -0.7 1.5
v -1.2 0.2 1.5
v -0.5 -0.8 1.5
v -0.5 -0.7 1.5
v -0.5 0.2 1.5
v -0.4 -0.8 1.5
v -0.4 0.2 1.5
v -0.3 0.2 1.5
v -0.3 0.3 1.5
v -0.2 0.2 1.5
v -0.2 0.3 1.5
v -0.2 0.2 -0.2
v -0.2 0.3 -0.2
v 1.5 0.2 -0.2
v 1.5 0.3 -0.2
v 1.5 0.2 -0.3
v 1.5 0.3 -0.3
v 1.6 0.2 -0.3
v 1.6 0.3 -0.3
v 1.4 -0.8 -0.4
v 1.4 0.2 -0.4
v 1.5 -0.8 -0.4
v 1.5 0.2 -0.4
v -1.3 -0.8 -1.2
v -1.3 -0.7 -1.2
v -1.2 -0.8 -1.2
v -1.2 -0.7 -1.2
v -1.2 0.2 -1.2
v 1.4 -0.8 -1.2
v 1.4 -0.7 -1.2
v 1.4 0.2 -1.2
v 1.5 -0.8 -1.2
v 1.5 -0.7 -1.2
v -1.3 -0.8 1.4
v -1.3 -0.7 1.4
v -1.2 -0.8 1.4
v -1.2 -0.7 1.4
v -1.2 0.2 1.4
v -0.5 -0.8 1.4
v -0.5 -0.7 1.4
v -0.5 0.2 1.4
v -0.4 -0.8 1.4
v -0.4 0.2 1.4
v 1.4 -0.8 -0.5
v 1.4 -0.7 -0.5
v 1.5 -0.8 -0.5
v 1.5 -0.7 -0.5
v -1.4 0.2 -1.3
v -1.4 0.3 -1.3
v -1.3 -0.8 -1.3
v -1.3 0.2 -1.3
v -1.3 0.3 -1.3
v -1.2 -0.8 -1.3
v -1.2 -0.7 -1.3
v -1.2 0.2 -1.3
v 1.4 -0.8 -1.3
v 1.4 -0.7 -1.3
v 1.4 0.2 -1.3
v 1.5 -0.8 -1.3
v 1.5 0.2 -1.3
v 1.5 0.3 -1.3
v 1.6 0.2 -1.3
v 1.6 0.3 -1.3
v -1.3 0.2 -1.4
v -1.3 0.3 -1.4
v 1.5 0.2 -1.4
v 1.5 0.3 -1.4
v -1.3 -0.8 1.5
v -1.2 -0.8 1.5
v -0.5 -0.8 1.5
v -0.4 -0.8 1.5
v -1.3 -0.8 1.4
v -1.2 -0.8 1.4
v -0.5 -0.8 1.4
v -0.4 -0.8 1.4
v 1.4 -0.8 -0.4
v 1.5 -0.8 -0.4
v 1.4 -0.8 -0.5
v 1.5 -0.8 -0.5
v -1.3 -0.8 -1.2
v -1.2 -0.8 -1.2
v 1.4 -0.8 -1.2
v 1.5 -0.8 -1.2
v -1.3 -0.8 -1.3
v -1.2 -0.8 -1.3
v 1.4 -0.8 -1.3
v 1.5 -0.8 -1.3
v -1.2 -0.7 1.5
v -0.5 -0.7 1.5
v -1.3 -0.7 1.4
v -1.2 -0.7 1.4
v -0.5 -0.7 1.4
v 1.4 -0.7 -0.5
v 1.5 -0.7 -0.5
v -1.3 -0.7 -1.2
v -1.2 -0.7 -1.2
v 1.4 -0.7 -1.2
v 1.5 -0.7 -1.2
v -1.2 -0.7 -1.3
v 1.4 -0.7 -1.3
v -1.3 0.2 1.6
v -0.3 0.2 1.6
v -1.4 0.2 1.5
v -1.3 0.2 1.5
v -1.2 0.2 1.5
v -0.5 0.2 1.5
v -0.4 0.2 1.5
v -0.3 0.2 1.5
v -0.2 0.2 1.5
v -1.3 0.2 1.4
v -1.2 0.2 1.4
v -0.5 0.2 1.4
v -0.4 0.2 1.4
v -0.2 0.2 -0.2
v 1.5 0.2 -0.2
v 1.5 0.2 -0.3
v 1.6 0.2 -0.3
v 1.4 0.2 -0.4
v 1.5 0.2 -0.4
v 1.4 0.2 -0.5
v 1.5 0.2 -0.5
v -1.3 0.2 -1.2
v -1.2 0.2 -1.2
v 1.4 0.2 -1.2
v 1.5 0.2 -1.2
v -1.4 0.2 -1.3
v -1.3 0.2 -1.3
v -1.2 0.2 -1.3
v 1.4 0.2 -1.3
v 1.5 0.2 -1.3
v 1.6 0.2 -1.3
v -1.3 0.2 -1.4
v 1.5 0.2 -1.4
v -1.3 0.3 1.6
v -0.3 0.3 1.6
v -1.4 0.3 1.5
v -1.3 0.3 1.5
v -0.3 0.3 1.5
v -0.2 0.3 1.5
v -0.2 0.3 -0.2
v 1.5 0.3 -0.2
v 1.5 0.3 -0.3
v 1.6 0.3 -0.3
v -1.4 0.3 -1.3
v -1.3 0.3 -1.3
v 1.5 0.3 -1.3
v 1.6 0.3 -1.3
v -1.3 0.3 -1.4
v 1.5 0.3 -1.4

# faces
f 3/1/1 2/1/1 1/1/1
f 4/1/1 2/1/1 3/1/1
f 9/2/1 6/2/1 5/2/1
f 10/2/1 8/2/1 7/2/1
f 12/2/1 9/2/1 5/2/1
f 13/1/1 10/1/1 9/1/1
f 13/2/1 9/2/1 12/2/1
f 14/2/1 8/2/1 10/2/1
f 14/1/1 10/1/1 13/1/1
f 15/2/1 8/2/1 14/2/1
f 17/1/1 12/1/1 11/1/1
f 18/1/1 12/1/1 17/1/1
f 19/1/1 16/1/1 15/1/1
f 20/1/1 16/1/1 19/1/1
f 23/2/1 22/2/1 21/2/1
f 24/2/1 22/2/1 23/2/1
f 29/2/1 26/2/1 25/2/1
f 30/2/1 28/2/1 27/2/1
f 31/2/1 28/2/1 30/2/1
f 32/2/1 29/2/1 25/2/1
f 33/1/1 30/1/1 29/1/1
f 33/2/1 29/2/1 32/2/1
f 34/1/1 30/1/1 33/1/1
f 35/2/2 36/2/2 39/2/2
f 39/2/2 36/2/2 40/2/2
f 37/2/2 38/2/2 41/2/2
f 41/2/2 38/2/2 42/2/2
f 40/1/2 41/1/2 43/1/2
f 43/1/2 41/1/2 44/1/2
f 45/2/2 46/2/2 47/2/2
f 47/2/2 46/2/2 48/2/2
f 49/1/2 50/1/2 51/1/2
f 51/1/2 50/1/2 52/1/2
f 53/1/2 54/1/2 55/1/2
f 55/1/2 54/1/2 56/1/2
f 57/2/2 58/2/2 61/2/2
f 59/2/2 60/2/2 62/2/2
f 57/2/2 61/2/2 65/2/2
f 61/1/2 62/1/2 66/1/2
f 65/2/2 61/2/2 66/2/2
f 62/2/2 60/2/2 67/2/2
f 66/1/2 62/1/2 67/1/2
f 67/2/2 60/2/2 68/2/2
f 63/1/2 64/1/2 70/1/2
f 70/1/2 64/1/2 71/1/2
f 68/1/2 69/1/2 72/1/2
f 72/1/2 69/1/2 73/1/2
f 74/1/2 75/1/2 76/1/2
f 76/1/2 75/1/2 77/1/2
f 80/1/3 79/1/3 78/1/3
f 81/1/3 79/1/3 80/1/3
f 85/1/3 83/1/3 82/1/3
f 86/1/3 83/1/3 85/1/3
f 87/2/3 85/2/3 84/2/3
f 88/2/3 85/2/3 87/2/3
f 89/2/3 85/2/3 88/2/3
f 91/1/3 89/1/3 88/1/3
f 92/1/3 89/1/3 91/1/3
f 93/2/3 91/2/3 90/2/3
f 93/2/3 92/2/3 91/2/3
f 94/2/3 92/2/3 93/2/3
f 97/1/3 96/1/3 95/1/3
f 98/1/3 96/1/3 97/1/3
f 101/1/3 100/1/3 99/1/3
f 102/1/3 100/1/3 101/1/3
f 105/1/3 104/1/3 103/1/3
f 106/1/3 104/1/3 105/1/3
f 109/2/3 108/2/3 107/2/3
f 110/2/3 108/2/3 109/2/3
f 113/2/3 112/2/3 111/2/3
f 114/2/3 112/2/3 113/2/3
f 117/1/3 115/1/3 114/1/3
f 118/1/3 115/1/3 117/1/3
f 119/2/3 117/2/3 116/2/3
f 120/2/3 117/2/3 119/2/3
f 121/2/4 122/2/4 123/2/4
f 123/2/4 122/2/4 124/2/4
f 124/1/4 125/1/4 127/1/4
f 127/1/4 125/1/4 128/1/4
f 126/2/4 127/2/4 129/2/4
f 127/2/4 128/2/4 129/2/4
f 129/2/4 128/2/4 130/2/4
f 131/2/4 132/2/4 133/2/4
f 133/2/4 132/2/4 134/2/4
f 135/1/4 136/1/4 138/1/4
f 138/1/4 136/1/4 139/1/4
f 137/2/4 138/2/4 140/2/4
f 140/2/4 138/2/4 141/2/4
f 141/2/4 138/2/4 142/2/4
f 141/1/4 142/1/4 144/1/4
f 144/1/4 142/1/4 145/1/4
f 143/2/4 144/2/4 146/2/4
f 144/2/4 145/2/4 146/2/4
f 146/2/4 145/2/4 147/2/4
f 147/1/4 148/1/4 149/1/4
f 149/1/4 148/1/4 150/1/4
f 151/1/4 152/1/4 153/1/4
f 153/1/4 152/1/4 154/1/4
f 159/2/5 156/2/5 155/2/5
f 160/2/5 156/2/5 159/2/5
f 161/2/5 158/2/5 157/2/5
f 162/2/5 158/2/5 161/2/5
f 165/2/5 164/2/5 163/2/5
f 166/2/5 164/2/5 165/2/5
f 171/2/5 168/2/5 167/2/5
f 172/2/5 168/2/5 171/2/5
f 173/2/5 170/2/5 169/2/5
f 174/2/5 170/2/5 173/2/5
f 178/1/5 176/1/5 175/1/5
f 179/1/5 176/1/5 178/1/5
f 182/1/5 178/1/5 177/1/5
f 183/1/5 178/1/5 182/1/5
f 184/1/5 181/1/5 180/1/5
f 185/1/5 181/1/5 184/1/5
f 186/1/5 184/1/5 183/1/5
f 187/1/5 184/1/5 186/1/5
f 191/1/5 189/1/5 188/1/5
f 192/1/5 189/1/5 191/1/5
f 193/1/5 189/1/5 192/1/5
f 194/1/5 189/1/5 193/1/5
f 195/1/5 189/1/5 194/1/5
f 197/1/5 191/1/5 190/1/5
f 200/1/5 196/1/5 195/1/5
f 200/1/5 195/1/5 194/1/5
f 201/1/5 199/1/5 198/1/5
f 201/1/5 200/1/5 199/1/5
f 201/1/5 196/1/5 200/1/5
f 203/1/5 202/1/5 201/1/5
f 205/1/5 203/1/5 201/1/5
f 205/1/5 204/1/5 203/1/5
f 206/1/5 204/1/5 205/1/5
f 207/1/5 205/1/5 201/1/5
f 208/1/5 204/1/5 206/1/5
f 209/1/5 197/1/5 190/1/5
f 210/1/5 201/1/5 198/1/5
f 210/1/5 207/1/5 201/1/5
f 211/1/5 207/1/5 210/1/5
f 212/1/5 204/1/5 208/1/5
f 213/1/5 209/1/5 190/1/5
f 214/1/5 209/1/5 213/1/5
f 217/1/5 204/1/5 212/1/5
f 218/1/5 204/1/5 217/1/5
f 219/1/5 216/1/5 215/1/5
f 219/1/5 217/1/5 216/1/5
f 219/1/5 215/1/5 214/1/5
f 220/1/5 217/1/5 219/1/5
f 221/1/6 222/1/6 224/1/6
f 224/1/6 222/1/6 225/1/6
f 223/1/6 224/1/6 227/1/6
f 225/1/6 226/1/6 227/1/6
f 224/1/6 225/1/6 227/1/6
f 227/1/6 228/1/6 229/1/6
f 223/1/6 227/1/6 231/1/6
f 229/1/6 230/1/6 231/1/6
f 227/1/6 229/1/6 231/1/6
f 231/1/6 230/1/6 232/1/6
f 232/1/6 230/1/6 233/1/6
f 233/1/6 230/1/6 234/1/6
f 232/1/6 233/1/6 235/1/6
f 235/1/6 233/1/6 236/1/6
